<?xml version="1.0" encoding="utf-8" ?>
<svg width="86" height="100" xmlns="http://www.w3.org/2000/svg" xmlns:svg="http://www.w3.org/2000/svg">
    <g>
        <g>
            <polygon points="42.91403545937386,0.34832924604415894 28.773741850276693,8.697202807953843 28.773741850276693,24.997384163603854 42.91403545937386,33.545032692719886 57.05432462390776,24.997384163603854 57.05432462390776,8.697202807953843 " fill="#FAE922" />
            <polygon points="42.91403545937386,66.34418960785167 28.773741850276693,74.69305282226249 28.773741850276693,91.19202727060345 42.91403545937386,99.54089048501426 57.05432462390776,91.19202727060345 57.05432462390776,74.69305282226249 " fill="#C00A6C" />
            <polygon points="0.49316734075546265,24.997384163603854 0.49316734075546265,41.69512614839694 14.63345713030607,49.84521960407399 28.773741850276693,41.69512614839694 28.773741850276693,24.997384163603854 14.63345713030607,16.847294041349258 " fill="#76C5CC" />
            <polygon points="57.05432462390776,58.19409615217462 57.05432462390776,74.69305282226249 71.19461823300493,83.04192492579985 85.33488961928573,74.69305282226249 85.33488961928573,58.19409615217462 71.19461823300493,49.84521960407399 " fill="#E10A1A" />
            <polygon points="0.49316734075546265,74.69305282226249 14.63345713030607,83.04192492579985 28.773741850276693,74.69305282226249 28.773741850276693,58.19409615217462 14.63345713030607,49.84521960407399 0.49316734075546265,58.19409615217462 " fill="#6D818C" />
            <polygon points="57.05432462390776,41.69512614839694 71.19461823300493,49.84521960407399 85.33488961928573,41.69512614839694 85.33488961928573,24.997384163603854 71.19461823300493,16.847294041349258 57.05432462390776,24.997384163603854 " fill="#EF7F09" />
        </g>
    </g>
</svg>
